<?xml version="1.0" encoding="utf-8"?>
<!-- Generator: Adobe Illustrator 17.0.2, SVG Export Plug-In . SVG Version: 6.00 Build 0)  -->
<!DOCTYPE svg PUBLIC "-//W3C//DTD SVG 1.1//EN" "http://www.w3.org/Graphics/SVG/1.1/DTD/svg11.dtd">
<svg version="1.1" id="Layer_1" xmlns="http://www.w3.org/2000/svg" xmlns:xlink="http://www.w3.org/1999/xlink" x="0px" y="0px"
	 width="2400px" height="2400px" viewBox="0 0 2400 2400" enable-background="new 0 0 2400 2400" xml:space="preserve">
<g>
	<path fill="#C0C8CE" d="M2170.931,494.641l-323.94,235.66c96.07,132,153.46,293.95,153.46,469.69
		c0,265.86-130.39,500.851-330.12,646.321l235.53,324.45C2441.392,1781.242,2560.122,1030.772,2170.931,494.641z"/>
	<path opacity="0.7" fill="#C0C8CE" enable-background="new    " d="M1846.761,729.991l323.54-235.35
		C1936.881,172.971,1597.871,0.001,1200.64,0.001v400.04C1466.48,400.231,1701.291,530.461,1846.761,729.991z"/>
	<path opacity="0.4" fill="#C0C8CE" enable-background="new    " d="M1200.02,400.001c0.43,0,0.82,0.08,1.25,0.08V0.001
		c-264.84,0-490.35,73.36-704.611,229.22l234.61,323.28C863.14,456.941,1024.75,400.001,1200.02,400.001z"/>
	<path opacity="0.7" fill="#C0C8CE" enable-background="new    " d="M399.589,1199.992c0-266.63,131.04-502.14,331.68-647.491
		l-234.61-323.28c-428.36,311.56-599.081,837.331-435.39,1341.551l377.93-122.98
		C413.769,1369.772,399.589,1286.542,399.589,1199.992z"/>
	<path opacity="0.5" fill="#C0C8CE" enable-background="new    " d="M1200.02,1999.993c-355.39,0-656.351-231.72-760.821-552.201
		l-377.93,122.98c40.96,126.25,92.3,227.33,170.25,334.52c389.1,536.091,1139.031,655.001,1674.342,265.47l-235.53-324.45
		C1538.241,1942.493,1376.041,1999.993,1200.02,1999.993z"/>
</g>
</svg>
