<?xml version="1.0" encoding="utf-8"?>
<!-- Generator: Adobe Illustrator 15.1.0, SVG Export Plug-In . SVG Version: 6.00 Build 0)  -->
<!DOCTYPE svg PUBLIC "-//W3C//DTD SVG 1.1//EN" "http://www.w3.org/Graphics/SVG/1.1/DTD/svg11.dtd">
<svg version="1.1" xmlns="http://www.w3.org/2000/svg" xmlns:xlink="http://www.w3.org/1999/xlink" x="0px" y="0px" width="792px"
	 height="612px" viewBox="0 0 792 612" enable-background="new 0 0 792 612" xml:space="preserve">
<g id="Capa_1">
	<polygon fill="#82623C" points="365.342,107.746 280.606,174.396 449.667,174.396 	"/>
	<polygon fill="#82623C" points="465.644,187.024 264.552,187.024 209.882,230.025 520.048,230.025 	"/>
	<polygon fill="#82623C" points="573.41,272.202 536.024,242.653 193.828,242.653 156.26,272.202 163.802,292.492 566.193,292.492 	
		"/>
	<polygon fill="#82623C" points="539.484,367.589 191.716,367.589 210.243,417.432 521.757,417.432 	"/>
	<polygon fill="#82623C" points="221.781,448.473 456.202,448.473 510.717,448.473 517.265,430.063 214.938,430.063 	"/>
	<polygon fill="#82623C" points="561.701,305.123 168.497,305.123 187.023,354.964 543.975,354.964 	"/>
	<path fill="#6E5128" d="M256.975,478.152c1.125-1.012,1.812-2.347,1.812-3.809c0-3.125-3.104-5.657-6.934-5.657
		c-3.784,0-6.863,2.483-6.926,5.563c-1.749,2.299-4.2,3.228-6.871,4.2c-2.74,1.006-5.306,2.115-8.203,2.592
		c-2.469,0.404-4.994,0.416-7.501,0.416c-0.892-2.283-3.509-3.933-6.602-3.933c-3.826,0-6.928,2.53-6.928,5.649
		c0,2.08,1.373,3.896,3.422,4.877c-1,0.981-1.603,2.24-1.603,3.619c0,3.119,3.1,5.654,6.927,5.654c3.827,0,6.934-2.535,6.934-5.654
		c0-0.189-0.015-0.388-0.036-0.571c3.637-1.947,7.639-3.165,11.676-3.979c3.042-0.606,6.204-0.958,9.334-0.904
		c0.762,0.139,1.533,0.202,2.326,0.118c0.089,0.008,0.179,0.014,0.265,0.021c1.247,1.491,3.351,2.478,5.734,2.478
		c3.826,0,6.928-2.53,6.928-5.655C260.731,480.987,259.204,479.093,256.975,478.152z M234.017,481.209
		c-0.009,0.022-0.018,0.045-0.024,0.076c-0.142,0.018-0.283,0.047-0.421,0.07C233.72,481.303,233.868,481.254,234.017,481.209z"/>
	<path fill="#6E5128" d="M319.179,479.217c1.124-1.004,1.809-2.342,1.809-3.81c0-3.118-3.104-5.649-6.93-5.649
		c-3.789,0-6.861,2.479-6.928,5.557c-1.75,2.306-4.202,3.23-6.875,4.207c-2.733,1.004-5.3,2.114-8.198,2.584
		c-2.469,0.409-4.998,0.422-7.5,0.416c-0.892-2.283-3.512-3.928-6.601-3.928c-3.827,0-6.932,2.529-6.932,5.649
		c0,2.079,1.375,3.892,3.426,4.877c-1.004,0.978-1.607,2.241-1.607,3.614c0,3.125,3.102,5.656,6.927,5.656
		c3.83,0,6.933-2.531,6.933-5.656c0-0.192-0.012-0.38-0.037-0.564c3.643-1.949,7.641-3.173,11.681-3.98
		c3.043-0.612,6.198-0.964,9.333-0.902c0.762,0.136,1.53,0.2,2.324,0.11c0.088,0.008,0.177,0.021,0.267,0.024
		c1.247,1.491,3.349,2.479,5.729,2.479c3.83,0,6.934-2.536,6.934-5.656C322.935,482.056,321.407,480.156,319.179,479.217z
		 M296.214,482.271c-0.006,0.028-0.01,0.052-0.021,0.081c-0.139,0.019-0.282,0.048-0.421,0.072
		C295.924,482.371,296.069,482.316,296.214,482.271z"/>
	<path fill="#6E5128" d="M381.377,480.286c1.126-1.005,1.813-2.341,1.813-3.811c0-3.118-3.104-5.655-6.932-5.655
		c-3.788,0-6.866,2.482-6.925,5.563c-1.753,2.297-4.204,3.225-6.877,4.205c-2.733,0.999-5.3,2.109-8.201,2.586
		c-2.465,0.403-4.994,0.42-7.497,0.416c-0.892-2.277-3.512-3.935-6.603-3.935c-3.825,0-6.931,2.53-6.931,5.648
		c0,2.087,1.376,3.898,3.426,4.878c-1.005,0.981-1.608,2.249-1.608,3.621c0,3.124,3.104,5.655,6.933,5.655
		c3.826,0,6.928-2.531,6.928-5.655c0-0.189-0.013-0.383-0.036-0.569c3.642-1.951,7.641-3.169,11.682-3.978
		c3.041-0.61,6.197-0.962,9.331-0.909c0.763,0.145,1.536,0.21,2.326,0.119c0.089,0.005,0.178,0.019,0.268,0.024
		c1.247,1.49,3.348,2.47,5.729,2.47c3.83,0,6.933-2.53,6.933-5.656C385.136,483.127,383.609,481.225,381.377,480.286z
		 M358.419,483.34c-0.008,0.03-0.016,0.053-0.021,0.076c-0.144,0.024-0.284,0.049-0.427,0.073
		C358.122,483.44,358.27,483.388,358.419,483.34z"/>
	<path fill="#6E5128" d="M443.58,481.355c1.124-1.003,1.811-2.341,1.811-3.811c0-3.125-3.103-5.656-6.929-5.656
		c-3.79,0-6.867,2.486-6.929,5.563c-1.749,2.298-4.201,3.227-6.873,4.207c-2.739,0.998-5.301,2.106-8.202,2.584
		c-2.468,0.404-4.994,0.415-7.499,0.415c-0.893-2.28-3.508-3.933-6.602-3.933c-3.828,0-6.933,2.529-6.933,5.651
		c0,2.077,1.38,3.896,3.426,4.877c-1.004,0.98-1.605,2.24-1.605,3.618c0,3.125,3.101,5.651,6.934,5.651
		c3.822,0,6.928-2.526,6.928-5.651c0-0.191-0.013-0.38-0.034-0.571c3.636-1.946,7.637-3.167,11.675-3.975
		c3.048-0.605,6.203-0.962,9.337-0.909c0.766,0.138,1.531,0.208,2.323,0.119c0.091,0.007,0.179,0.011,0.269,0.019
		c1.25,1.491,3.349,2.479,5.73,2.479c3.829,0,6.932-2.53,6.932-5.655C447.337,484.189,445.809,482.295,443.58,481.355z
		 M420.619,484.409c-0.006,0.023-0.017,0.055-0.025,0.078c-0.138,0.024-0.275,0.046-0.42,0.069
		C420.321,484.513,420.472,484.458,420.619,484.409z"/>
	<path fill="#6E5128" d="M505.782,482.426c1.123-1.006,1.811-2.343,1.811-3.809c0-3.126-3.104-5.658-6.933-5.658
		c-3.788,0-6.864,2.479-6.925,5.557c-1.75,2.307-4.202,3.23-6.875,4.214c-2.735,0.996-5.302,2.108-8.199,2.576
		c-2.47,0.411-4.997,0.425-7.502,0.425c-0.892-2.281-3.504-3.939-6.604-3.939c-3.821,0-6.926,2.536-6.926,5.655
		c0,2.082,1.376,3.897,3.426,4.879c-1.007,0.974-1.604,2.239-1.604,3.618c0,3.119,3.099,5.649,6.927,5.649s6.932-2.53,6.932-5.649
		c0-0.195-0.012-0.388-0.035-0.568c3.64-1.952,7.643-3.169,11.68-3.983c3.042-0.604,6.199-0.956,9.331-0.901
		c0.763,0.136,1.535,0.201,2.325,0.111c0.092,0.013,0.18,0.019,0.27,0.023c1.248,1.49,3.346,2.479,5.729,2.479
		c3.831,0,6.932-2.533,6.932-5.658C509.537,485.259,508.011,483.358,505.782,482.426z M482.82,485.474
		c-0.006,0.029-0.017,0.054-0.021,0.081c-0.142,0.024-0.283,0.049-0.426,0.073C482.525,485.579,482.672,485.521,482.82,485.474z"/>
	<g>
		<path fill="#DB9600" d="M641.091,228.256L363.27,18.637L79.072,232.435l34.225,40.266c3.564,4.193,9.995,4.809,14.29,1.368
			L356.147,90.966c4.295-3.441,11.34-3.461,15.654-0.045l229.072,181.357c4.315,3.416,10.882,2.886,14.593-1.179l26.864-29.426
			C646.042,237.609,645.483,231.571,641.091,228.256z"/>
	</g>
</g>
<g id="Layer_2">
	<path fill="#3C2C17" d="M421.496,435.911c26.33-0.446,52.668-0.495,78.996-0.823C387.47,86.681,274.552,311.96,228.708,433.614
		C292.861,438.247,357.232,436.996,421.496,435.911z"/>
</g>
</svg>
